<?xml version="1.0" encoding="UTF-8" standalone="no"?>
<!-- Created with Inkscape (http://www.inkscape.org/) -->

<svg
   width="194.81036mm"
   height="43.395374mm"
   viewBox="0 0 194.81036 43.395374"
   version="1.1"
   id="svg1"
   xml:space="preserve"
   inkscape:version="1.3.2 (091e20e, 2023-11-25, custom)"
   sodipodi:docname="root_logo.svg"
   xmlns:inkscape="http://www.inkscape.org/namespaces/inkscape"
   xmlns:sodipodi="http://sodipodi.sourceforge.net/DTD/sodipodi-0.dtd"
   xmlns="http://www.w3.org/2000/svg"
   xmlns:svg="http://www.w3.org/2000/svg"><sodipodi:namedview
     id="namedview1"
     pagecolor="#ffffff"
     bordercolor="#666666"
     borderopacity="1.0"
     inkscape:showpageshadow="2"
     inkscape:pageopacity="0.0"
     inkscape:pagecheckerboard="0"
     inkscape:deskcolor="#d1d1d1"
     inkscape:document-units="mm"
     inkscape:zoom="0.73890575"
     inkscape:cx="-99.471414"
     inkscape:cy="194.20609"
     inkscape:window-width="2560"
     inkscape:window-height="1369"
     inkscape:window-x="2552"
     inkscape:window-y="-8"
     inkscape:window-maximized="1"
     inkscape:current-layer="layer1" /><defs
     id="defs1" /><g
     inkscape:label="Layer 1"
     inkscape:groupmode="layer"
     id="layer1"
     transform="translate(-5.8818355,-125.06538)"><path
       style="fill:#000000"
       d="m 53.523591,168.31846 c -0.415722,-0.11678 -1.0584,-0.41254 -1.428173,-0.65724 -0.783097,-0.51823 -3.689944,-3.39049 -3.689944,-3.64603 0,-0.0955 -0.244327,-0.47552 -0.542949,-0.84447 -0.551108,-0.68089 -1.549152,-2.67549 -1.549152,-3.096 0,-0.12659 -0.06428,-0.23016 -0.142842,-0.23016 -0.07856,0 -0.379893,-0.59746 -0.669623,-1.32768 -0.289729,-0.73023 -0.575074,-1.4001 -0.6341,-1.48861 -0.05903,-0.0885 -0.234203,-0.52303 -0.389281,-0.96559 -0.155078,-0.44256 -0.408667,-1.09433 -0.563532,-1.44838 -0.154864,-0.35404 -0.484514,-1.25928 -0.732556,-2.01163 -0.248042,-0.75235 -0.50081,-1.44033 -0.561708,-1.52885 -0.0609,-0.0885 -0.20294,-0.45405 -0.315651,-0.81231 -0.303711,-0.96538 -1.822364,-2.51022 -2.891961,-2.94183 -1.172308,-0.47305 -3.42238,-0.48951 -4.66821,-0.0342 -1.012332,0.37002 -1.028389,0.38276 -1.074694,0.85247 -0.08912,0.90405 -0.353727,2.00189 -0.562145,2.33233 -0.383382,0.60786 -1.360642,0.43739 -2.202825,-0.38424 -0.410215,-0.40021 -0.152728,-1.86586 0.503834,-2.8679 0.679452,-1.03698 2.008615,-2.01834 2.733644,-2.01834 0.138517,0 0.489666,-0.0998 0.780333,-0.22183 0.290667,-0.12201 0.962999,-0.35386 1.49407,-0.51523 2.117872,-0.64354 4.124806,-2.04163 5.180055,-3.60859 0.284312,-0.42217 0.667104,-1.26464 0.85065,-1.87215 0.183545,-0.6075 0.408334,-1.32181 0.499531,-1.58735 0.274908,-0.80044 0.375169,-3.35027 0.164614,-4.18645 -0.329378,-1.30808 -1.159584,-2.80151 -1.938534,-3.48717 -1.196451,-1.05316 -1.555399,-1.1516 -4.193058,-1.1499 -2.52236,0.002 -3.792141,0.24264 -5.954441,1.13022 -2.319008,0.95191 -6.432048,4.34281 -7.303528,6.02122 -0.109842,0.21155 -0.316662,0.56568 -0.459601,0.78696 -0.142939,0.22128 -0.488024,1.09031 -0.766857,1.93117 -0.506968,1.52885 -0.506968,1.52885 -0.647526,7.56375 -0.07731,3.3192 -0.186143,6.25398 -0.241858,6.52173 -0.222584,1.06968 0.294551,4.31192 1.360177,8.5278 0.393415,1.55645 1.509844,2.74724 3.47292,3.70424 1.116412,0.54426 1.420492,0.623 2.372109,0.61429 0.800392,-0.007 1.173978,-0.0846 1.400604,-0.28969 0.366264,-0.33147 0.307033,-0.55183 -0.41889,-1.55847 -0.816134,-1.13173 -0.690381,-2.07054 0.277349,-2.07054 0.529184,0 1.198871,0.5087 1.541208,1.1707 0.399946,0.77341 0.214598,2.26878 -0.354888,2.8632 -1.228352,1.28212 -3.665537,1.57172 -6.18566,0.73501 -0.752351,-0.24979 -1.534262,-0.51975 -1.737578,-0.5999 -0.489114,-0.19283 -2.697331,-0.18722 -3.052298,0.008 -0.508842,0.27949 -2.378173,0.65117 -3.274994,0.65117 -1.078775,0 -1.340472,-0.19986 -1.035051,-0.79048 0.119665,-0.23141 0.26569,-0.78188 0.324498,-1.22328 0.05881,-0.44139 0.243353,-1.27325 0.410097,-1.84858 0.378049,-1.30441 0.76151,-5.25476 0.792638,-8.16564 0.01297,-1.21295 0.104511,-2.53328 0.203421,-2.93407 0.297095,-1.20384 0.222482,-10.23422 -0.09843,-11.9134 -0.143786,-0.75235 -0.342249,-2.01968 -0.441029,-2.81629 -0.205045,-1.65357 -0.553398,-2.76914 -0.926995,-2.96863 -0.141277,-0.0754 -1.03305,-0.0809 -1.981718,-0.0121 -1.521851,0.11032 -3.778529,0.006 -4.470986,-0.20574 -0.132768,-0.0407 -0.6759095,-0.2062 -1.2069813,-0.3678 -2.5559028,-0.77775 -3.5143445,-3.48417 -1.9012547,-5.3687 0.5137564,-0.60021 0.6224214,-0.6524 1.3585289,-0.6524 0.8854673,0 1.7497071,0.36061 1.7497071,0.73008 0,0.13146 0.1542192,0.5671 0.342709,0.9681 0.516182,1.09813 0.931091,1.24796 3.180985,1.14872 2.810401,-0.12396 5.409663,-0.40048 6.428487,-0.6839 0.500858,-0.13933 1.164116,-0.32502 1.473908,-0.41265 0.309792,-0.0876 0.852934,-0.23086 1.206982,-0.31831 0.99149,-0.24489 4.066114,-1.2393 4.638558,-1.50022 0.281176,-0.12816 1.018161,-0.3878 1.637744,-0.57698 1.199445,-0.36623 1.700683,-0.47425 5.149787,-1.10976 1.844292,-0.33981 4.267419,-0.2267 5.955923,0.27802 0.738093,0.22063 2.159363,0.96807 3.056204,1.60724 1.004483,0.71589 3.620944,3.34432 3.620944,3.63751 0,0.0352 0.317953,0.5797 0.706563,1.21 0.627927,1.01847 1.149467,2.39035 1.693737,4.45528 0.225755,0.8565 0.225032,3.33405 -0.0012,4.07364 -0.09668,0.31607 -0.40446,1.04479 -0.683956,1.61936 -0.581092,1.19457 -1.557795,2.04264 -2.761937,2.39818 -0.405014,0.11959 -0.886967,0.33936 -1.071007,0.48839 -0.330029,0.26724 -0.325783,0.2736 0.30955,0.46395 1.866068,0.55909 3.997697,2.40741 4.895352,4.24473 0.316236,0.64727 0.661027,1.46653 0.766203,1.82058 0.105176,0.35404 0.250863,0.78856 0.323749,0.96558 0.122451,0.29741 0.396328,1.30971 0.783713,2.89676 0.08642,0.35404 0.234027,1.22307 0.328016,1.93117 0.707705,5.33175 1.015055,6.60653 1.800056,7.46599 0.251215,0.27505 0.59405,0.50008 0.761856,0.50008 0.281527,0 0.678627,-0.58058 0.678627,-0.99219 0,-0.3466 1.055413,-1.08061 1.898715,-1.32051 0.834372,-0.23736 0.885774,-0.23344 1.414039,0.10784 0.301506,0.19479 0.594591,0.49663 0.6513,0.67076 0.185456,0.56947 0.108521,1.45474 -0.173884,2.00085 -0.403478,0.78025 -1.511762,1.92773 -2.20195,2.27984 -0.798325,0.40727 -2.132768,0.51847 -3.068267,0.25567 z m 25.13688,-1.95036 c -2.902865,-0.56802 -3.718909,-0.80189 -4.777181,-1.36909 -0.33508,-0.17959 -0.660742,-0.32653 -0.723695,-0.32653 -0.235255,0 -2.190926,-1.2184 -3.53917,-2.20494 -2.459084,-1.79935 -4.789128,-4.61586 -5.365198,-6.48533 -0.06819,-0.22127 -0.296707,-0.65579 -0.507824,-0.96558 -0.211117,-0.30979 -0.531105,-1.03398 -0.711083,-1.60931 -1.248176,-3.98998 -1.263193,-7.48589 -0.05391,-12.5492 0.304791,-1.27617 0.473192,-1.75474 1.020512,-2.90016 1.152386,-2.41168 1.457545,-2.79459 4.617123,-5.79351 1.785762,-1.69496 3.852779,-3.07422 5.313552,-3.54558 0.342725,-0.11059 0.98523,-0.32894 1.42779,-0.48522 2.556428,-0.90274 4.722256,-1.30202 7.241887,-1.33507 1.470297,-0.0193 2.029281,0.049 3.299083,0.40299 2.85193,0.79507 4.89283,1.48623 5.149786,1.74401 0.20408,0.20473 2.101774,1.60956 2.17425,1.60956 0.157029,0 2.90105,2.13331 3.593609,2.79381 0.936517,0.89317 3.03818,4.06079 3.752048,5.65506 0.43101,0.96258 0.62648,1.69353 0.77466,2.89676 0.10901,0.88512 0.30584,2.22487 0.43741,2.97722 0.31273,1.78833 0.4087,4.57662 0.18556,5.39118 -0.097,0.35405 -0.18843,0.75235 -0.20321,0.88512 -0.0148,0.13277 -0.15036,0.52181 -0.30128,0.86454 -0.15092,0.34273 -0.2744,0.67577 -0.2744,0.74009 0,0.26853 -1.248709,3.03474 -1.65338,3.66266 -0.241299,0.37441 -0.438725,0.72167 -0.438725,0.77169 0,0.22267 -1.659421,2.51925 -2.427774,3.35995 -0.466329,0.51024 -1.432495,1.38083 -2.147036,1.93464 -1.237695,0.9593 -3.616189,2.34555 -4.02443,2.34555 -0.105445,0 -0.585471,0.19046 -1.066724,0.42325 -1.186312,0.57382 -2.43723,0.97206 -3.691295,1.17516 -1.412465,0.22874 -5.787545,0.18937 -7.080957,-0.0637 z m 5.391183,-1.06405 c 0.44256,-0.0846 1.130539,-0.19424 1.528843,-0.24356 0.398304,-0.0493 0.869026,-0.15157 1.04605,-0.22725 0.177024,-0.0757 0.575328,-0.18002 0.88512,-0.23186 0.653917,-0.10944 3.636059,-1.51084 4.16688,-1.95815 0.790495,-0.66613 1.975797,-2.59439 2.759045,-4.48845 0.226023,-0.54657 0.312021,-1.30664 0.637298,-5.63258 0.459807,-6.11507 0.438883,-7.64797 -0.151571,-11.10423 -0.481841,-2.82048 -1.421876,-6.34254 -2.005293,-7.51331 -0.229627,-0.4608 -0.417503,-0.89585 -0.417503,-0.96678 0,-0.18581 -1.096031,-1.72571 -1.677494,-2.35684 -1.811675,-1.96643 -5.202394,-2.84955 -9.390324,-2.44574 -1.833911,0.17683 -2.46291,0.28948 -4.555508,0.81589 -0.316961,0.0797 -1.018983,0.36462 -1.560049,0.63307 -0.541067,0.26845 -1.029085,0.48809 -1.084486,0.48809 -0.44703,0 -2.97501,2.15243 -2.97501,2.53305 0,0.11715 -0.242821,0.66332 -0.539603,1.2137 -0.571907,1.06062 -0.777804,1.75697 -1.057236,3.5756 -0.0952,0.61959 -0.279357,1.8145 -0.409241,2.65536 -0.597353,3.86722 -0.654018,5.12711 -0.314853,7.00049 0.03205,0.17703 0.101514,1.95129 0.154366,3.94281 0.07056,2.65869 0.174847,3.96308 0.392434,4.90839 0.162986,0.7081 0.387712,1.72196 0.499392,2.25303 0.320762,1.52532 1.024952,2.78065 2.137895,3.81114 0.543153,0.50292 1.168598,1.00787 1.389878,1.12212 0.22128,0.11424 0.669396,0.44081 0.995813,0.72569 0.326417,0.28489 0.905768,0.60262 1.287447,0.70608 0.381678,0.10346 0.838798,0.24536 1.015822,0.31534 1.259611,0.49791 5.615534,0.77995 7.241888,0.4689 z m -18.377162,-11.6151 c 0.201973,-0.46469 0.46278,-1.17077 0.579572,-1.56908 0.116793,-0.3983 0.27158,-0.86902 0.343971,-1.04605 0.07239,-0.17702 0.1725,-0.57532 0.222462,-0.88512 0.268064,-1.66214 0.277621,-1.68542 0.792876,-1.93117 0.626996,-0.29904 0.70582,-0.95844 0.144034,-1.20491 -0.303873,-0.13331 -0.362095,-0.28431 -0.362095,-0.93911 0,-1.1079 -0.626924,-4.91017 -0.920147,-5.58066 -0.345012,-0.7889 -0.840851,-1.28744 -1.280471,-1.28744 -0.473119,0 -0.4982,0.48851 -0.07574,1.47527 0.562859,1.3147 1.167909,4.24328 1.11693,5.40619 -0.04755,1.08461 -0.04755,1.08461 -0.558588,1.13415 -0.965775,0.0936 -1.126936,0.83558 -0.181494,0.83558 0.495452,0 0.495452,0 0.392134,0.87908 -0.109374,0.93061 -0.188808,1.16569 -0.951702,2.81661 -0.576791,1.24818 -0.652671,2.18633 -0.20341,2.51483 0.470106,0.34375 0.544932,0.29463 0.941673,-0.61817 z m 34.248352,-0.9154 c 0.111856,-0.54691 -0.0066,-1.50158 -0.320792,-2.58485 -0.464497,-1.6016 -0.539839,-1.89179 -0.616506,-2.37454 -0.07615,-0.47949 -0.03401,-0.54439 0.497766,-0.76658 0.766148,-0.32012 0.821948,-0.88215 0.08759,-0.88215 -0.975286,0 -1.364862,-0.52162 -0.95773,-1.28235 0.139381,-0.26044 0.324788,-1.39991 0.596902,-3.66846 0.04527,-0.37737 0.03667,-0.80507 -0.01911,-0.95042 -0.08335,-0.21722 -0.167274,-0.17501 -0.471234,0.23698 -0.203401,0.2757 -0.461869,0.81202 -0.574373,1.19182 -0.112504,0.37981 -0.262829,0.80497 -0.334056,0.9448 -0.128528,0.25232 -0.362152,2.06906 -0.362152,2.81622 0,0.33517 -0.07583,0.38955 -0.543142,0.38955 -0.472063,0 -0.543141,0.0526 -0.543141,0.40233 0,0.40625 0.498627,1.04605 0.815234,1.04605 0.09433,0 0.311587,-0.075 0.482792,-0.16659 0.242411,-0.12974 0.311282,-0.11404 0.311282,0.071 0,0.13066 -0.07934,0.2866 -0.176318,0.34654 -0.09838,0.0608 -0.139956,0.33177 -0.09406,0.61298 0.1096,0.67155 0.823291,3.23775 1.124825,4.0445 0.13233,0.35405 0.283671,0.77581 0.336314,0.93725 0.156195,0.479 0.634341,0.24994 0.759913,-0.36404 z m 31.787336,13.71899 c -0.0419,-0.0419 -1.2341,-0.13818 -2.64942,-0.21404 -3.45262,-0.18508 -4.35359,-0.36576 -5.60009,-1.12303 -0.56296,-0.34201 -1.29591,-0.7144 -1.62878,-0.82754 -0.33287,-0.11313 -0.94476,-0.44689 -1.35976,-0.74169 -0.41501,-0.29479 -1.1418,-0.73223 -1.6151,-0.97209 -0.4733,-0.23985 -1.14762,-0.75979 -1.49848,-1.15542 -0.35087,-0.39563 -0.81898,-0.87653 -1.04026,-1.06867 -1.22954,-1.06763 -1.92071,-1.98405 -3.14236,-4.16645 -1.23702,-2.20986 -1.55086,-3.03932 -2.16164,-5.71304 -0.30578,-1.3386 -0.34166,-1.88932 -0.28834,-4.4256 0.0335,-1.59322 0.14038,-3.15022 0.23752,-3.46001 0.0971,-0.3098 0.35471,-1.21503 0.57239,-2.01164 0.21768,-0.79661 0.62924,-1.95531 0.91457,-2.57489 0.28534,-0.61959 0.6696,-1.4524 0.85393,-1.85071 1.01014,-2.1828 3.24316,-4.74279 5.34976,-6.13312 2.089,-1.37871 3.43316,-1.98374 6.03257,-2.71538 0.66384,-0.18685 1.35182,-0.40906 1.52884,-0.4938 0.45492,-0.21776 3.54435,-0.41482 4.50607,-0.28741 0.44256,0.0586 1.32865,0.11294 1.96909,0.12069 2.18825,0.0265 5.59313,1.09826 8.36684,2.63367 1.37923,0.76348 3.86957,3.08966 5.03465,4.70279 0.38356,0.53107 0.9972,1.25526 1.36364,1.6093 0.5957,0.57557 1.39356,2.00813 2.37518,4.26467 0.6876,1.58064 0.68599,1.56614 0.6545,5.89544 -0.0278,3.82811 -0.0595,4.26875 -0.35291,4.90839 -0.17728,0.3865 -0.44198,1.10103 -0.58822,1.58785 -0.52306,1.74116 -1.24627,3.3916 -1.78081,4.06393 -0.29888,0.37594 -0.54413,0.73421 -0.54499,0.79616 -0.01,0.70693 -3.67029,4.46411 -5.55132,5.69795 -3.26557,2.14203 -4.77501,2.81546 -7.32471,3.26786 -1.1064,0.19631 -2.13417,0.38056 -2.28395,0.40943 -0.14977,0.0289 -0.30655,0.0183 -0.34841,-0.0236 z m 2.47143,-1.73051 c 4.12115,-1.07185 6.38053,-2.74582 7.89416,-5.84878 0.96918,-1.98683 1.51036,-5.68041 1.70275,-11.6213 0.0818,-2.52747 -0.0892,-4.80086 -0.5753,-7.64421 -0.50702,-2.96604 -0.66613,-3.79513 -0.79238,-4.12885 -0.0785,-0.20747 -0.19637,-0.77552 -0.26196,-1.26234 -0.18336,-1.36078 -0.86587,-2.70437 -1.79845,-3.54048 -0.8195,-0.73471 -2.4077,-1.61984 -3.433,-1.91325 -0.30979,-0.0887 -0.96156,-0.27429 -1.44837,-0.41251 -1.34935,-0.38313 -4.17954,-0.89285 -4.95751,-0.89285 -0.38141,0 -0.99712,0.0666 -1.36823,0.148 -0.37112,0.0814 -1.26877,0.22945 -1.99478,0.329 -1.63751,0.22453 -4.47534,1.13015 -5.34517,1.70577 -0.55742,0.36889 -1.78367,1.91247 -1.78367,2.24525 0,0.0599 -0.13308,0.30105 -0.29573,0.53599 -0.16265,0.23494 -0.37991,0.77116 -0.48279,1.19159 -0.19839,0.81067 -0.25749,1.07001 -0.90766,3.98304 -0.22719,1.01789 -0.48378,2.14038 -0.5702,2.49443 -0.24123,0.98825 -0.49764,3.40503 -0.46784,4.40974 0.0147,0.49554 -0.0232,1.91484 -0.0841,3.15401 -0.10456,2.1254 -0.0648,2.74897 0.39473,6.19583 0.31901,2.39276 0.49943,3.24131 0.97851,4.60225 0.67479,1.91692 0.69309,1.94797 1.73477,2.94344 1.35113,1.29118 3.15888,2.34511 5.12569,2.98832 0.42376,0.13858 1.09636,0.3609 1.49466,0.49403 1.00208,0.33495 5.74709,0.23265 7.24189,-0.15612 z M 114.5154,152.07582 c 0.18474,-0.37408 0.38472,-1.15086 0.44441,-1.72618 0.0597,-0.57533 0.14229,-1.19089 0.18356,-1.36792 0.0413,-0.17702 0.10059,-0.72016 0.13183,-1.20698 0.0543,-0.84597 0.0768,-0.8857 0.50972,-0.89839 0.89536,-0.0263 1.01616,-0.07 1.01616,-0.36812 0,-0.23728 -0.15317,-0.3182 -0.7241,-0.38255 -0.97313,-0.10969 -1.23896,-0.3508 -1.11503,-1.01138 0.15886,-0.8468 -0.5167,-4.8916 -1.04266,-6.2427 -0.23464,-0.60276 -0.6775,-0.50937 -0.85628,0.18059 -0.10104,0.38993 -0.0324,0.96545 0.25902,2.17232 0.21807,0.90301 0.43726,2.18498 0.48711,2.84882 0.0498,0.66384 0.10975,1.35182 0.13313,1.52885 0.0379,0.28663 -0.0506,0.32186 -0.80814,0.32186 -0.57667,0 -0.89802,0.0766 -0.99768,0.23772 -0.21312,0.34462 0.26802,0.80833 0.83873,0.80833 0.83001,0 0.98856,0.33147 0.87143,1.82184 -0.0569,0.72397 -0.24722,1.78703 -0.42294,2.36236 -0.30998,1.01487 -0.30024,1.46925 0.0406,1.895 0.22331,0.27891 0.60903,-0.0783 1.0511,-0.97347 z m 33.02339,0.044 c -0.42816,-2.2171 -0.63188,-5.4219 -0.33291,-5.23712 0.0824,0.0509 0.35096,-0.0938 0.5968,-0.32167 0.35395,-0.32802 0.41172,-0.47018 0.27752,-0.68292 -0.0932,-0.14777 -0.3368,-0.30817 -0.54133,-0.35645 -0.6783,-0.16012 -0.73385,-0.4949 -0.33794,-2.03671 0.40361,-1.57187 0.42738,-1.68057 0.64543,-2.95215 0.0835,-0.48681 0.20233,-1.12048 0.26412,-1.40814 0.10942,-0.50939 3.1e-4,-0.64021 -0.33349,-0.39986 -0.24121,0.17367 -0.55998,0.96291 -0.55998,1.38643 0,0.20236 -0.0496,0.41756 -0.11029,0.47822 -0.30336,0.30336 -0.66759,1.91371 -0.94266,4.16779 -0.0875,0.71728 -0.19179,0.83839 -0.66982,0.7781 -0.26805,-0.0338 -0.77566,0.7728 -0.59442,0.94455 0.0795,0.0754 0.28836,0.16296 0.46403,0.19463 0.22391,0.0404 0.34698,0.22713 0.41158,0.62458 0.0507,0.31184 0.14516,0.65274 0.20993,0.75755 0.0648,0.10481 0.18132,0.92211 0.25898,1.81622 0.10777,1.24063 0.24424,1.83623 0.57622,2.51477 0.36182,0.73955 0.47059,0.85272 0.64654,0.67275 0.15683,-0.16041 0.17537,-0.40368 0.0717,-0.94057 z m 23.61178,14.21097 c -0.23637,-0.0615 -0.26717,-0.17797 -0.17591,-0.66529 0.0608,-0.32491 0.21995,-0.84421 0.35357,-1.154 0.13363,-0.30979 0.43849,-1.1064 0.67748,-1.77024 0.23899,-0.66384 0.57958,-1.60528 0.75687,-2.0921 0.17728,-0.48682 0.41259,-1.21101 0.52291,-1.60931 0.11031,-0.3983 0.26299,-0.90524 0.33928,-1.12651 0.12718,-0.36888 0.69286,-3.32767 0.89228,-4.667 0.0461,-0.30979 0.14305,-0.70809 0.2154,-0.88512 0.0723,-0.17702 0.22019,-1.04605 0.32855,-1.93117 0.10835,-0.88512 0.33927,-2.36971 0.51314,-3.29908 0.19906,-1.06405 0.36846,-2.97102 0.45746,-5.14979 0.0777,-1.903 0.18966,-4.25853 0.2487,-5.2345 0.12855,-2.12477 -0.22559,-3.90597 -1.30302,-6.55368 -0.16422,-0.40357 -0.52308,-0.35291 -1.86798,0.26367 -0.65417,0.29991 -1.44288,0.59795 -1.75267,0.66231 -0.30979,0.0643 -0.63567,0.16801 -0.72419,0.23036 -0.14479,0.102 -0.56265,0.23682 -2.0921,0.67504 -0.26553,0.0761 -0.96436,0.27895 -1.55295,0.45082 -1.75232,0.51169 -4.14549,0.86248 -5.20993,0.76368 -0.96938,-0.09 -0.96938,-0.09 -1.28745,0.50149 -0.18215,0.33872 -0.59554,0.74429 -0.96738,0.94908 -0.72804,0.40096 -1.11731,0.33411 -2.43851,-0.41875 -0.55483,-0.31615 -0.69215,-0.49225 -0.77742,-0.99695 -0.1193,-0.70614 0.003,-1.1978 0.40666,-1.63076 0.22828,-0.24502 0.46539,-0.29476 1.20979,-0.25377 0.92585,0.051 0.92585,0.051 1.13252,-0.51227 0.34295,-0.93469 0.27704,-2.23582 -0.17118,-3.37954 -0.52095,-1.3293 -0.52428,-1.88251 -0.0127,-2.11558 0.31633,-0.14413 0.4752,-0.1197 0.84488,0.12995 0.98912,0.66793 2.14487,1.00641 4.55904,1.33517 0.75235,0.10245 1.85258,0.25451 2.44496,0.3379 0.59238,0.0834 1.4614,0.15205 1.93117,0.15256 0.46976,5.1e-4 1.28863,0.0752 1.8197,0.16603 1.54294,0.26381 13.62724,0.1992 16.34276,-0.0874 1.25111,-0.13203 2.32231,-0.26851 2.38045,-0.30329 0.0581,-0.0348 1.30061,-0.15037 2.76106,-0.25688 2.82835,-0.20626 4.17198,-0.46379 5.07969,-0.97363 0.64075,-0.35989 1.98662,-0.4362 2.02578,-0.11487 0.0712,0.58425 0.0674,0.6972 -0.0284,0.84489 -0.0574,0.0885 -0.27292,0.59544 -0.47889,1.12651 -0.20596,0.53107 -0.42208,1.03801 -0.48026,1.12652 -0.22582,0.34355 -0.8699,2.48535 -0.77572,2.57953 0.0548,0.0548 0.30544,-0.003 0.55707,-0.12842 0.55072,-0.27442 1.73397,-0.18496 2.27925,0.17232 1.13916,0.74641 0.42232,2.62192 -1.14381,2.9926 -0.24672,0.0584 -0.74667,0.0259 -1.11099,-0.0722 -0.69143,-0.18619 -1.73949,-0.91412 -1.73949,-1.20818 -1e-5,-0.0937 -0.0971,-0.30315 -0.2157,-0.46539 -0.17736,-0.24254 -0.48486,-0.304 -1.73001,-0.34573 -2.67957,-0.0898 -4.51724,-0.31422 -5.45712,-0.66641 -0.13277,-0.0497 -0.34693,-0.11152 -0.47591,-0.13727 -0.12898,-0.0257 -0.38245,-0.1144 -0.56326,-0.19701 -0.18081,-0.0826 -0.76325,-0.27176 -1.29432,-0.42034 -0.91497,-0.25597 -1.67316,-0.55722 -1.85071,-0.73534 -0.0443,-0.0444 -0.40635,-0.19733 -0.80465,-0.33986 -0.39831,-0.14252 -0.83447,-0.3069 -0.96924,-0.36527 -1.13741,-0.49266 -2.65601,9.43879 -2.49472,16.31516 0.0767,3.2679 0.62037,8.36079 1.05664,9.89725 0.0754,0.26553 0.3006,1.09835 0.50044,1.8507 0.19984,0.75235 0.60324,1.93782 0.89645,2.63436 0.9041,2.14777 1.53444,2.82799 3.00524,3.24306 1.15687,0.32648 2.06637,0.34347 2.89788,0.0541 0.96051,-0.33421 1.03123,-0.59848 0.35267,-1.31797 -0.77458,-0.82129 -0.79602,-1.56775 -0.0679,-2.36493 0.47305,-0.51793 0.58055,-0.55889 1.46677,-0.55889 0.9174,0 0.98012,0.0269 1.54141,0.66045 1.44815,1.63467 1.15511,3.86092 -0.67405,5.12071 -1.062,0.73143 -1.69519,0.88948 -3.56879,0.89083 -1.85417,0.001 -3.16218,-0.28217 -5.06932,-1.09878 -1.93048,-0.82661 -2.99518,-1.0542 -4.33669,-0.92703 -1.10764,0.10499 -4.52092,1.20419 -4.97407,1.60182 -0.32018,0.28095 -1.56939,0.92081 -1.74682,0.89475 -0.0699,-0.0103 -0.25605,-0.0522 -0.41364,-0.0932 z m 6.90148,-4.86096 c 0.91971,-0.56082 0.82001,-1.77735 -0.2122,-2.58928 -0.57505,-0.45233 -1.25878,-0.3336 -1.85646,0.32237 -0.67875,0.74497 -0.57777,1.63436 0.24986,2.20066 0.64171,0.43909 1.17549,0.45853 1.8188,0.0662 z m 1.43159,-28.95605 c 0.39962,-0.35216 0.72419,-0.90803 0.72419,-1.24031 0,-0.49104 -0.47472,-1.15878 -0.96954,-1.36374 -1.01144,-0.41895 -2.21708,0.59316 -2.03597,1.70917 0.0513,0.31613 0.25267,0.71303 0.4475,0.882 0.44612,0.38693 1.40174,0.39364 1.83382,0.0129 z m -15.32866,-1.49002 c 0.95517,-1.02247 0.32663,-2.73875 -0.91226,-2.49097 -0.94005,0.18801 -1.63805,1.26587 -1.45424,2.24566 0.18393,0.98045 1.54769,1.12181 2.3665,0.24531 z m 31.02384,-0.73361 c 0.60336,-0.40174 0.80076,-0.71327 0.79488,-1.25443 -0.008,-0.76241 -0.48417,-1.21645 -1.27497,-1.21645 -0.9051,0 -1.4555,0.54053 -1.4555,1.42938 0,1.07827 1.03996,1.63785 1.93559,1.0415 z"
       id="path1" /></g></svg>
